<?xml version="1.0" encoding="utf-8"?><svg viewBox="0 0 124 124" xmlns="http://www.w3.org/2000/svg" xmlns:xlink="http://www.w3.org/1999/xlink"><style>:root>svg{display:none}:root>svg:target{display:block}</style><svg fill="none" viewBox="0 0 36 36" id="close" xmlns="http://www.w3.org/2000/svg"><path d="M27.54 29.67 18 20.115 8.46 29.67l-2.13-2.13L15.885 18 6.33 8.46l2.13-2.13L18 15.885l9.54-9.54 2.115 2.115-9.54 9.54 9.54 9.54-2.115 2.13Z" fill="#FCFCFC"/></svg><svg fill="none" viewBox="0 0 46 46" id="cursor" xmlns="http://www.w3.org/2000/svg"><path d="M23 0a23 23 0 1 0 0 46 23 23 0 0 0 0-46Zm-4.6 33.35v-20.7L32.2 23 18.4 33.35Z" fill="#FCFCFC"/></svg><svg viewBox="0 0 50 50" id="instagram" xmlns="http://www.w3.org/2000/svg"><g opacity=".16" stroke="#F4F4F5" stroke-width="1.5"><path d="M1 9V1h8"/><path d="m41 1 8 8" stroke-linecap="round"/></g><path fill-rule="evenodd" clip-rule="evenodd" d="M41 1H1v40l8 8h40V9l-8-8Z" fill="#100F0F" fill-opacity=".64"/><g opacity=".16" stroke="#F4F4F5" stroke-width="1.5"><path d="m1 41 8 8" stroke-linecap="round"/><path d="M49 41v8h-8"/></g><path d="M26.028 15c1.125.003 1.696.009 2.19.023l.193.007c.224.008.445.018.712.03 1.064.05 1.79.218 2.427.465.66.254 1.216.598 1.772 1.153a4.9 4.9 0 0 1 1.153 1.772c.247.637.415 1.363.465 2.428.012.266.022.487.03.712l.006.194c.015.492.021 1.063.023 2.188l.001.746v1.31a79.4 79.4 0 0 1-.023 2.188l-.006.194c-.008.225-.018.446-.03.712-.05 1.065-.22 1.79-.466 2.428a4.9 4.9 0 0 1-1.153 1.772 4.9 4.9 0 0 1-1.772 1.153c-.637.247-1.363.415-2.427.465l-.712.03-.194.006c-.493.014-1.064.021-2.189.023l-.746.001h-1.309c-.73.003-1.46-.005-2.189-.023l-.194-.006c-.237-.009-.475-.02-.712-.031-1.064-.05-1.79-.218-2.428-.465a4.898 4.898 0 0 1-1.77-1.153 4.9 4.9 0 0 1-1.155-1.772c-.247-.637-.415-1.363-.465-2.428l-.03-.712-.005-.194A78.62 78.62 0 0 1 15 26.028v-2.056c-.003-.73.005-1.459.022-2.188l.007-.194c.008-.225.018-.446.03-.712.05-1.065.218-1.79.465-2.428a4.9 4.9 0 0 1 1.156-1.772 4.9 4.9 0 0 1 1.77-1.153c.638-.247 1.363-.415 2.428-.465.266-.012.488-.022.712-.03l.194-.006c.73-.018 1.459-.025 2.188-.023L26.028 15ZM25 20a5 5 0 1 0 0 10 5 5 0 0 0 0-10Zm0 2a3 3 0 1 1 0 6A3 3 0 0 1 25 22m5.25-3.5a1.25 1.25 0 1 0 0 2.5 1.25 1.25 0 0 0 0-2.5Z"/></svg><svg viewBox="0 0 58 58" id="instagram_footer" xmlns="http://www.w3.org/2000/svg"><g opacity=".16" stroke="#F4F4F5" stroke-width="1.5"><path d="M1 9V1h8"/><path d="m49 1 8 8" stroke-linecap="round"/></g><path fill-rule="evenodd" clip-rule="evenodd" d="M47.667 1H1v46.667L10.333 57H57V10.333L47.667 1Z" fill="#FCFCFC" fill-opacity=".06"/><g opacity=".16" stroke="#F4F4F5" stroke-width="1.5"><path d="m1 49 8 8" stroke-linecap="round"/><path d="M57 49v8h-8"/></g><path d="M30.028 19c1.125.003 1.696.009 2.19.023l.193.007c.224.008.445.018.712.03 1.064.05 1.79.218 2.427.465.66.254 1.216.598 1.772 1.153a4.9 4.9 0 0 1 1.153 1.772c.247.637.415 1.363.465 2.428.012.266.022.487.03.712l.006.194c.015.492.021 1.063.023 2.188l.001.746v1.31a79.4 79.4 0 0 1-.023 2.188l-.006.194c-.008.225-.018.446-.03.712-.05 1.065-.22 1.79-.466 2.428a4.9 4.9 0 0 1-1.153 1.772 4.9 4.9 0 0 1-1.772 1.153c-.637.247-1.363.415-2.427.465l-.712.03-.194.006c-.493.014-1.064.021-2.189.023l-.746.001h-1.309c-.73.003-1.46-.005-2.189-.023l-.194-.006c-.237-.009-.475-.02-.712-.031-1.064-.05-1.79-.218-2.428-.465a4.898 4.898 0 0 1-1.77-1.153 4.9 4.9 0 0 1-1.155-1.772c-.247-.637-.415-1.363-.465-2.428l-.03-.712-.005-.194A78.62 78.62 0 0 1 19 30.028v-2.056c-.003-.73.005-1.459.022-2.188l.007-.194c.008-.225.018-.446.03-.712.05-1.065.218-1.79.465-2.428a4.9 4.9 0 0 1 1.156-1.772 4.9 4.9 0 0 1 1.77-1.153c.638-.247 1.363-.415 2.428-.465.266-.012.488-.022.712-.03l.194-.006c.73-.018 1.459-.025 2.188-.023L30.028 19ZM29 24a5 5 0 1 0 0 10 5 5 0 0 0 0-10Zm0 2a3 3 0 1 1 0 6A3 3 0 0 1 29 26m5.25-3.5a1.25 1.25 0 1 0 0 2.5 1.25 1.25 0 0 0 0-2.5Z"/></svg><svg viewBox="0 0 50 50" id="linkedin" xmlns="http://www.w3.org/2000/svg"><g opacity=".16" stroke="#F4F4F5" stroke-width="1.5"><path d="M1 9V1h8"/><path d="m41 1 8 8" stroke-linecap="round"/></g><path fill-rule="evenodd" clip-rule="evenodd" d="M41 1H1v40l8 8h40V9l-8-8Z" fill="#100F0F" fill-opacity=".64"/><g opacity=".16" stroke="#F4F4F5" stroke-width="1.5"><path d="m1 41 8 8" stroke-linecap="round"/><path d="M49 41v8h-8"/></g><path d="M32 16a2 2 0 0 1 2 2v14a2 2 0 0 1-2 2H18a2 2 0 0 1-2-2V18a2 2 0 0 1 2-2h14Zm-.5 15.5v-5.3a3.26 3.26 0 0 0-3.26-3.26c-.85 0-1.84.52-2.32 1.3v-1.11h-2.79v8.37h2.79v-4.93c0-.77.62-1.4 1.39-1.4a1.4 1.4 0 0 1 1.4 1.4v4.93h2.79Zm-11.62-9.94a1.68 1.68 0 0 0 1.68-1.68c0-.93-.75-1.69-1.68-1.69a1.69 1.69 0 0 0-1.69 1.69c0 .93.76 1.68 1.69 1.68Zm1.39 9.94v-8.37H18.5v8.37h2.77Z"/></svg><svg viewBox="0 0 58 58" id="linkedin_footer" xmlns="http://www.w3.org/2000/svg"><g opacity=".16" stroke="#F4F4F5" stroke-width="1.5"><path d="M1 9V1h8"/><path d="m49 1 8 8" stroke-linecap="round"/></g><path fill-rule="evenodd" clip-rule="evenodd" d="M47.667 1H1v46.667L10.333 57H57V10.333L47.667 1Z" fill="#FCFCFC" fill-opacity=".06"/><g opacity=".16" stroke="#F4F4F5" stroke-width="1.5"><path d="m1 49 8 8" stroke-linecap="round"/><path d="M57 49v8h-8"/></g><path d="M36 20a2 2 0 0 1 2 2v14a2 2 0 0 1-2 2H22a2 2 0 0 1-2-2V22a2 2 0 0 1 2-2h14Zm-.5 15.5v-5.3a3.26 3.26 0 0 0-3.26-3.26c-.85 0-1.84.52-2.32 1.3v-1.11h-2.79v8.37h2.79v-4.93c0-.77.62-1.4 1.39-1.4a1.4 1.4 0 0 1 1.4 1.4v4.93h2.79Zm-11.62-9.94a1.68 1.68 0 0 0 1.68-1.68c0-.93-.75-1.69-1.68-1.69a1.69 1.69 0 0 0-1.69 1.69c0 .93.76 1.68 1.69 1.68Zm1.39 9.94v-8.37H22.5v8.37h2.77Z"/></svg><svg fill="none" viewBox="0 0 48 48" id="pause" xmlns="http://www.w3.org/2000/svg"><g clip-path="url(#ga)"><path d="M24 0C10.745 0 0 10.745 0 24s10.745 24 24 24 24-10.745 24-24S37.255 0 24 0Zm-2.4 33.6h-4.8V14.4h4.8v19.2Zm9.6 0h-4.8V14.4h4.8v19.2Z" fill="#FCFCFC"/></g><defs><clipPath id="ga"><path fill="#fff" d="M0 0h48v48H0z"/></clipPath></defs></svg><svg fill="none" viewBox="0 0 124 124" id="pause2" xmlns="http://www.w3.org/2000/svg"><path d="M31 98.167h20.667V25.833H31v72.334Zm41.333-72.334v72.334H93V25.833H72.333Z" fill="#FCFCFC"/></svg><svg fill="none" viewBox="0 0 48 48" id="play" xmlns="http://www.w3.org/2000/svg"><g clip-path="url(#ia)"><path d="M48 24a24 24 0 1 1-48 0 24 24 0 0 1 48 0Zm-27.63-8.721A1.5 1.5 0 0 0 18 16.5v15a1.5 1.5 0 0 0 2.37 1.221l10.5-7.5a1.501 1.501 0 0 0 0-2.442l-10.5-7.5Z" fill="#FCFCFC"/></g><defs><clipPath id="ia"><path fill="#fff" d="M0 0h48v48H0z"/></clipPath></defs></svg><svg fill="none" viewBox="0 0 124 124" id="play2" xmlns="http://www.w3.org/2000/svg"><path d="M41.333 26.557V98.89l56.833-36.167-56.833-36.166Z" fill="#FCFCFC"/></svg><svg fill="none" viewBox="0 0 32 32" id="screen" xmlns="http://www.w3.org/2000/svg"><path d="M11.707 25.293A1 1 0 0 1 11 27H6a1 1 0 0 1-1-1v-5a1 1 0 0 1 1.707-.707l5 5ZM11 5H6a1 1 0 0 0-1 1v5a1 1 0 0 0 1.707.707l5-5A1 1 0 0 0 11 5Zm15.383 15.076a1 1 0 0 0-1.09.216l-5 5A1 1 0 0 0 21 27h5a1 1 0 0 0 1-1v-5a1 1 0 0 0-.617-.924ZM26 5h-5a1 1 0 0 0-.707 1.707l5 5A1 1 0 0 0 27 11V6a1 1 0 0 0-1-1Z" fill="#FCFCFC"/></svg><svg fill="none" viewBox="0 0 32 32" id="speaker" xmlns="http://www.w3.org/2000/svg"><path d="M26 16a4.991 4.991 0 0 1-1.25 3.308 1 1 0 0 1-1.5-1.323 3 3 0 0 0 0-3.965 1 1 0 0 1 1.5-1.322A5 5 0 0 1 26 16ZM20 4v24a1 1 0 0 1-1.614.789L9.656 22H4a2 2 0 0 1-2-2v-8a2 2 0 0 1 2-2h5.656l8.73-6.789a1 1 0 0 1 1.614.79ZM9 12H4v8h5v-8Z" fill="#FCFCFC"/></svg><svg viewBox="0 0 50 50" id="telegram" xmlns="http://www.w3.org/2000/svg"><g opacity=".16" stroke="#F4F4F5" stroke-width="1.5"><path d="M1 9V1h8"/><path d="m41 1 8 8" stroke-linecap="round"/></g><path fill-rule="evenodd" clip-rule="evenodd" d="M41 1H1v40l8 8h40V9l-8-8Z" fill="#100F0F" fill-opacity=".64"/><g opacity=".16" stroke="#F4F4F5" stroke-width="1.5"><path d="m1 41 8 8" stroke-linecap="round"/><path d="M49 41v8h-8"/></g><g clip-path="url(#ma)"><path fill-rule="evenodd" clip-rule="evenodd" d="M31.343 19.089a1.25 1.25 0 0 1 1.202.155c.168.126.297.292.374.481.077.19.1.395.065.595L31.18 30.736c-.175 1.005-1.334 1.58-2.303 1.08a47.102 47.102 0 0 1-3.097-1.736c-.541-.337-2.2-1.416-1.996-2.184.175-.657 2.962-3.123 4.554-4.59.625-.576.34-.908-.398-.378-1.833 1.316-4.775 3.317-5.748 3.88-.858.497-1.305.581-1.84.497-.976-.155-1.881-.394-2.62-.686-.999-.393-.95-1.699-.001-2.079l13.613-5.451Z"/></g><defs><clipPath id="ma"><path fill="#fff" transform="translate(17 17)" d="M0 0h16v16H0z"/></clipPath></defs></svg><svg viewBox="0 0 58 58" id="telegram_footer" xmlns="http://www.w3.org/2000/svg"><g opacity=".16" stroke="#F4F4F5" stroke-width="1.5"><path d="M1 9V1h8"/><path d="m49 1 8 8" stroke-linecap="round"/></g><path fill-rule="evenodd" clip-rule="evenodd" d="M47.667 1H1v46.667L10.333 57H57V10.333L47.667 1Z" fill="#FCFCFC" fill-opacity=".06"/><g opacity=".16" stroke="#F4F4F5" stroke-width="1.5"><path d="m1 49 8 8" stroke-linecap="round"/><path d="M57 49v8h-8"/></g><g clip-path="url(#na)"><path fill-rule="evenodd" clip-rule="evenodd" d="M35.343 23.089a1.25 1.25 0 0 1 1.202.155c.168.126.297.292.374.481.077.19.1.395.065.595L35.18 34.736c-.175 1.005-1.335 1.58-2.303 1.08a47.102 47.102 0 0 1-3.097-1.736c-.541-.337-2.2-1.416-1.996-2.184.175-.657 2.962-3.123 4.554-4.59.625-.576.34-.908-.398-.378-1.833 1.316-4.775 3.317-5.748 3.88-.858.497-1.305.581-1.84.497-.976-.155-1.881-.394-2.62-.686-.999-.393-.95-1.699-.001-2.079l13.613-5.451Z"/></g><defs><clipPath id="na"><path fill="#fff" transform="translate(21 21)" d="M0 0h16v16H0z"/></clipPath></defs></svg></svg>