<svg width="45" height="40" viewBox="0 0 45 40" fill="none" xmlns="http://www.w3.org/2000/svg">
<path d="M32.0875 9.9799C32.3658 9.9088 32.6657 9.88399 32.9175 9.76162C36.6998 7.91451 40.4771 6.05252 44.2561 4.19714C44.4698 4.09297 44.6935 4.00698 45 3.87634V26.5857C40.7737 24.5071 36.6021 22.4549 32.3095 20.3432C32.3095 20.7616 32.3095 21.0543 32.3095 21.3453C32.3095 24.1019 32.2962 26.8569 32.3227 29.6135C32.3277 30.2039 32.1968 30.4321 31.549 30.4288C26.9384 30.4023 22.3277 30.4255 17.717 30.3924C17.3857 30.3907 16.9301 30.1361 16.7479 29.8583C14.7349 26.8023 12.7651 23.7183 10.6942 20.507C10.6677 20.8708 10.6395 21.0956 10.6395 21.3205C10.6362 25.0693 10.6494 28.8165 10.6163 32.5636C10.613 32.9059 10.4092 33.3888 10.1392 33.5657C6.91518 35.6824 3.66137 37.7527 0.414182 39.833C0.328032 39.8876 0.226974 39.9206 0.0546748 40C0.0397643 39.661 0.0165632 39.3997 0.0165632 39.1368C0.0165632 28.6362 0.0231942 18.1373 0 7.6367C0 7.00171 0.195498 6.64618 0.719024 6.31545C3.88834 4.31951 7.03612 2.28884 10.2021 0.286292C10.4606 0.122582 10.8052 0.015092 11.1083 0.0134384C15.7737 -0.00309795 20.4407 -0.00805239 25.106 0.0200594C25.4258 0.021713 25.8781 0.213534 26.0437 0.463233C28.0716 3.54396 30.0563 6.65279 32.0494 9.75667C32.0875 9.8162 32.0759 9.90549 32.0891 9.98321C31.7926 10.051 31.496 10.1767 31.1995 10.1767C24.6007 10.1883 18.0036 10.1866 11.4049 10.1866C11.1663 10.1866 10.9294 10.1866 10.6842 10.1866V20.1531H32.1571C32.1869 19.9976 32.2233 19.8934 32.2233 19.7876C32.2316 16.7565 32.2382 13.7254 32.2333 10.6943C32.2333 10.4562 32.1372 10.218 32.0875 9.97825V9.9799Z" fill="#FCFCFC"/>
</svg>
